<?xml version="1.0" standalone="no"?>
<!DOCTYPE svg PUBLIC "-//W3C//DTD SVG 20010904//EN"
 "http://www.w3.org/TR/2001/REC-SVG-20010904/DTD/svg10.dtd">
<svg version="1.0" xmlns="http://www.w3.org/2000/svg"
 width="16.000000pt" height="16.000000pt" viewBox="0 0 16.000000 16.000000"
 preserveAspectRatio="xMidYMid meet">
<metadata>
Created by potrace 1.11, written by Peter Selinger 2001-2013
</metadata>
<g transform="translate(0.000000,16.000000) scale(0.004000,-0.004000)"
fill="#000000" stroke="none">
<path d="M1757 3987 c-3 -10 -33 -16 -91 -21 -179 -13 -479 -121 -701 -252
-252 -148 -523 -421 -680 -684 -130 -217 -238 -516 -252 -699 -4 -58 -10 -81
-19 -81 -11 0 -14 -45 -14 -239 0 -161 4 -241 11 -243 6 -2 15 -39 20 -83 12
-97 52 -257 86 -345 13 -36 29 -78 35 -95 6 -16 33 -74 60 -128 99 -199 211
-352 382 -522 174 -174 338 -290 541 -385 241 -113 446 -167 670 -177 83 -4
139 -9 125 -11 -54 -8 -39 -21 24 -21 51 0 66 4 66 15 0 11 22 14 113 14 281
1 591 96 892 274 39 22 77 46 85 53 8 6 51 38 95 71 168 123 378 358 497 557
170 283 285 673 270 910 -4 63 -2 76 12 81 20 8 21 60 1 68 -12 4 -15 26 -15
103 -1 221 -53 438 -165 683 -104 228 -221 396 -400 576 -171 172 -323 283
-520 381 -55 28 -113 55 -130 61 -16 6 -60 22 -96 36 -88 34 -246 73 -344 85
-44 5 -81 14 -83 20 -6 18 -468 15 -475 -2z m-531 -1029 c10 -13 29 -43 41
-68 210 -428 357 -728 403 -825 61 -127 298 -605 318 -643 12 -20 21 -5 124
200 61 123 134 273 163 333 50 103 444 909 482 985 l18 35 219 3 c121 1 223
-1 227 -5 5 -5 -36 -98 -91 -208 -54 -110 -162 -330 -240 -490 -192 -394 -470
-958 -615 -1249 l-120 -240 -60 -33 c-72 -39 -112 -41 -181 -9 -63 29 -75 46
-170 237 -111 224 -361 733 -474 964 -253 519 -304 624 -399 813 -56 112 -99
208 -96 213 4 5 99 9 219 9 208 0 213 0 232 -22z"/>
</g>
</svg>
